<svg xmlns="http://www.w3.org/2000/svg" width="118" height="50" fill="none" viewBox="0 0 266 127"><path fill="#E20025" d="m4 119 5-79 246.5 9.199 5.5 55.191z"/><mask id="a" width="206" height="58" x="33" y="5" fill="#000" maskUnits="userSpaceOnUse"><path fill="#fff" d="M33 5h206v58H33z"/><path d="M68.563 10.938q-.189 2.937-.344 5.812-.156 2.875-.406 5.813l-13.25.687v3.938h11.5l-.626 9.687-10.937.313.063 18.5L38.75 56l1-45.062zM107.406 12A619 619 0 0 0 105 33.906q-1 10.875-1.906 21.907l-12.813.937.563-4.812q-.625.718-1.469 1.25a8.6 8.6 0 0 1-1.75.874q-.937.313-1.937.47-1 .124-1.907.093a10.7 10.7 0 0 1-4-.812 14 14 0 0 1-3.437-2.126 17.4 17.4 0 0 1-2.813-3.093 23 23 0 0 1-2.125-3.719q-.844-1.968-1.312-4a18.7 18.7 0 0 1-.438-3.937q0-2.813.094-5.813a119 119 0 0 1 .406-6.062q.282-3.032.719-6 .47-2.97 1.156-5.688 3.813.188 7.656.344 3.844.156 7.657.094-.72 2.718-1.438 5.468a117 117 0 0 0-1.25 5.5 71 71 0 0 0-.906 5.532 46 46 0 0 0-.344 5.625q0 .656.063 1.874.062 1.22.312 2.407.282 1.188.813 2.093.563.876 1.562.876 1.188 0 2.125-1 .937-1.032 1.656-2.75.72-1.72 1.22-3.97.53-2.25.874-4.687.375-2.469.594-4.968t.313-4.688q.125-2.22.156-3.969.062-1.75.062-2.718A23 23 0 0 0 93.031 12a267 267 0 0 0 8.063.125h3.125a81 81 0 0 0 3.187-.125m40.656 28.188q0 3.53-.093 7a265 265 0 0 1-.219 6.937l-18-.312a256 256 0 0 0 1.625-11.032q.687-5.53.687-11.156 0-.405-.031-1.312a42 42 0 0 0-.125-2.032 31 31 0 0 0-.281-2.343 13 13 0 0 0-.469-2.22q-.281-1-.718-1.624-.407-.657-1-.657-1.063 0-1.813.625-.718.626-1.219 1.625a10.4 10.4 0 0 0-.75 2.188 25 25 0 0 0-.437 2.438 51 51 0 0 0-.188 2.312 61 61 0 0 0-.031 1.75 983 983 0 0 0-.25 11q-.093 5.438-.25 11l-15.938.688q.626-11.032 1.188-21.938.594-10.905.938-21.937l14.75-.75-.126 5a21 21 0 0 1 1.876-2 12.2 12.2 0 0 1 2.187-1.594 10.6 10.6 0 0 1 2.437-1.063 9.3 9.3 0 0 1 2.75-.406q2.656 0 4.657.875a10.6 10.6 0 0 1 3.437 2.375q1.438 1.5 2.406 3.563a24 24 0 0 1 1.563 4.343q.594 2.313.906 4.844.313 2.5.407 4.938.124 2.437.124 4.718zm41.75 0q0 3.53-.093 7a265 265 0 0 1-.219 6.937l-18-.312a256 256 0 0 0 1.625-11.032q.687-5.53.687-11.156 0-.405-.031-1.312a42 42 0 0 0-.125-2.032 31 31 0 0 0-.281-2.343 13 13 0 0 0-.469-2.22q-.281-1-.718-1.624-.407-.657-1-.657-1.063 0-1.813.625-.718.626-1.219 1.625a10.4 10.4 0 0 0-.75 2.188 25 25 0 0 0-.437 2.438 51 51 0 0 0-.188 2.312 61 61 0 0 0-.031 1.75 983 983 0 0 0-.25 11q-.094 5.438-.25 11l-15.938.688q.625-11.032 1.188-21.938.594-10.905.938-21.937l14.75-.75-.126 5a21 21 0 0 1 1.876-2 12.2 12.2 0 0 1 2.187-1.594 10.6 10.6 0 0 1 2.437-1.063 9.3 9.3 0 0 1 2.75-.406q2.656 0 4.657.875a10.6 10.6 0 0 1 3.437 2.375q1.438 1.5 2.406 3.563a24 24 0 0 1 1.563 4.343q.594 2.313.906 4.844.313 2.5.407 4.938.124 2.437.124 4.718zM230 13.688l-14.688 24 .438 17.687h-16.062l.374-17.562-11.437-23.188 15.937-2 5 13.5 5.438-13.5z"/></mask><path fill="#FFD900" d="M68.563 10.938q-.189 2.937-.344 5.812-.156 2.875-.406 5.813l-13.25.687v3.938h11.5l-.626 9.687-10.937.313.063 18.5L38.75 56l1-45.062zM107.406 12A619 619 0 0 0 105 33.906q-1 10.875-1.906 21.907l-12.813.937.563-4.812q-.625.718-1.469 1.25a8.6 8.6 0 0 1-1.75.874q-.937.313-1.937.47-1 .124-1.907.093a10.7 10.7 0 0 1-4-.812 14 14 0 0 1-3.437-2.126 17.4 17.4 0 0 1-2.813-3.093 23 23 0 0 1-2.125-3.719q-.844-1.968-1.312-4a18.7 18.7 0 0 1-.438-3.937q0-2.813.094-5.813a119 119 0 0 1 .406-6.062q.282-3.032.719-6 .47-2.97 1.156-5.688 3.813.188 7.656.344 3.844.156 7.657.094-.72 2.718-1.438 5.468a117 117 0 0 0-1.25 5.5 71 71 0 0 0-.906 5.532 46 46 0 0 0-.344 5.625q0 .656.063 1.874.062 1.22.312 2.407.282 1.188.813 2.093.563.876 1.562.876 1.188 0 2.125-1 .937-1.032 1.656-2.75.72-1.72 1.22-3.97.53-2.25.874-4.687.375-2.469.594-4.968t.313-4.688q.125-2.22.156-3.969.062-1.75.062-2.718A23 23 0 0 0 93.031 12a267 267 0 0 0 8.063.125h3.125a81 81 0 0 0 3.187-.125m40.656 28.188q0 3.53-.093 7a265 265 0 0 1-.219 6.937l-18-.312a256 256 0 0 0 1.625-11.032q.687-5.53.687-11.156 0-.405-.031-1.312a42 42 0 0 0-.125-2.032 31 31 0 0 0-.281-2.343 13 13 0 0 0-.469-2.22q-.281-1-.718-1.624-.407-.657-1-.657-1.063 0-1.813.625-.718.626-1.219 1.625a10.4 10.4 0 0 0-.75 2.188 25 25 0 0 0-.437 2.438 51 51 0 0 0-.188 2.312 61 61 0 0 0-.031 1.75 983 983 0 0 0-.25 11q-.093 5.438-.25 11l-15.938.688q.626-11.032 1.188-21.938.594-10.905.938-21.937l14.75-.75-.126 5a21 21 0 0 1 1.876-2 12.2 12.2 0 0 1 2.187-1.594 10.6 10.6 0 0 1 2.437-1.063 9.3 9.3 0 0 1 2.75-.406q2.656 0 4.657.875a10.6 10.6 0 0 1 3.437 2.375q1.438 1.5 2.406 3.563a24 24 0 0 1 1.563 4.343q.594 2.313.906 4.844.313 2.5.407 4.938.124 2.437.124 4.718zm41.75 0q0 3.53-.093 7a265 265 0 0 1-.219 6.937l-18-.312a256 256 0 0 0 1.625-11.032q.687-5.53.687-11.156 0-.405-.031-1.312a42 42 0 0 0-.125-2.032 31 31 0 0 0-.281-2.343 13 13 0 0 0-.469-2.22q-.281-1-.718-1.624-.407-.657-1-.657-1.063 0-1.813.625-.718.626-1.219 1.625a10.4 10.4 0 0 0-.75 2.188 25 25 0 0 0-.437 2.438 51 51 0 0 0-.188 2.312 61 61 0 0 0-.031 1.75 983 983 0 0 0-.25 11q-.094 5.438-.25 11l-15.938.688q.625-11.032 1.188-21.938.594-10.905.938-21.937l14.75-.75-.126 5a21 21 0 0 1 1.876-2 12.2 12.2 0 0 1 2.187-1.594 10.6 10.6 0 0 1 2.437-1.063 9.3 9.3 0 0 1 2.75-.406q2.656 0 4.657.875a10.6 10.6 0 0 1 3.437 2.375q1.438 1.5 2.406 3.563a24 24 0 0 1 1.563 4.343q.594 2.313.906 4.844.313 2.5.407 4.938.124 2.437.124 4.718zM230 13.688l-14.688 24 .438 17.687h-16.062l.374-17.562-11.437-23.188 15.937-2 5 13.5 5.438-13.5z"/><path fill="#004E98" d="m68.563 10.938 4.99.318.339-5.318h-5.33zm-.75 11.625.259 4.993 4.353-.226.37-4.343zm-13.25.687-.26-4.993-4.74.246v4.747zm0 3.938h-5v5h5zm11.5 0 4.99.321.343-5.321h-5.334zm-.626 9.687.143 4.998 4.554-.13.293-4.546zm-10.937.313-.143-4.998-4.873.139.016 4.875zm.063 18.5.098 4.999 4.918-.098-.017-4.918zM38.75 56l-4.999-.11-.115 5.212L38.849 61zm1-45.062v-5h-4.89l-.109 4.889zm23.823-.319a623 623 0 0 0-.347 5.86l9.985.542q.155-2.85.341-5.765zm-.347 5.86a185 185 0 0 1-.395 5.66l9.963.848q.257-3.012.417-5.966zm4.327 1.09-13.25.688.519 9.986 13.25-.687zm-17.99 5.681v3.938h10V23.25zm5 8.938h11.5v-10h-11.5zm6.51-5.322-.625 9.687 9.98.644.624-9.688zm4.222 5.011-10.938.313.286 9.996 10.937-.313zM49.5 37.204l.063 18.5 10-.033-.063-18.5zm4.964 13.484-15.813.313.198 9.998 15.812-.312zm-10.715 5.423 1-45.063-9.998-.221-1 45.062zM39.75 15.938h28.813v-10H39.75zM107.406 12l4.96.634.764-5.98-6.017.355zM105 33.906l4.979.458v-.001zm-1.906 21.907.365 4.986 4.268-.312.35-4.265zm-12.813.937-4.966-.58-.702 6.008 6.033-.441zm.563-4.812 4.966.58 1.879-16.072-10.618 12.21zm-1.469 1.25-2.664-4.232-.036.023-.036.024zm-1.75.874 1.581 4.744.07-.024.07-.025zm-1.937.47.62 4.96.076-.009.075-.012zm-1.907.093.173-4.997-.05-.002h-.05zm-4-.812L77.793 58.4l.033.014.032.014zm-3.437-2.126-3.26 3.791.022.02.022.018zm-2.813-3.093-4.093 2.872.013.017.012.017zm-2.125-3.719-4.596 1.97.02.044.02.044zm-1.312-4-4.888 1.053.008.036.008.035zm-.344-9.75-4.996-.206v.025l-.002.025zm1.125-12.062-4.939-.78-.004.025-.004.026zm1.156-5.688.246-4.994-4.09-.201-1.003 3.97zm15.313.438 4.834 1.277 1.688-6.385-6.604.108zm-1.438 5.468-4.837-1.264-.005.02-.005.018zm-1.25 5.5 4.899 1.002.002-.01zm-.875 15.438-4.893 1.03.013.061.015.061zm.813 2.093-4.314 2.53.052.088.056.086zm3.687-.124 3.648 3.42.026-.029.026-.028zm1.656-2.75-4.612-1.93zm1.22-3.97L86.29 34.32l-.008.032-.007.032zm.874-4.687-4.943-.75-.004.026-.004.026zm.906-9.656-4.992-.281-.001.033-.002.034zm.157-3.969-4.997-.178-.002.044v.045zM93.03 12l.154-4.998-5.696-.175.567 5.67zm11.188.125v5h.049l.049-.001zm-1.772-.759a622 622 0 0 0-2.426 22.084l9.958.913a612 612 0 0 1 2.387-21.729zm-2.426 22.082a2266 2266 0 0 0-1.91 21.955l9.966.819q.904-11.007 1.902-21.858zm2.708 17.378-12.813.937.73 9.974 12.813-.938zm-7.482 6.505.563-4.813-9.932-1.161-.563 4.813zm-8.176-8.674c-.081.093-.192.194-.36.3l5.328 8.462a11.6 11.6 0 0 0 2.578-2.2zm-.432.346c-.215.14-.457.263-.735.365l3.442 9.389a13.6 13.6 0 0 0 2.765-1.385zm-.595.316q-.532.178-1.128.272l1.543 9.88a17 17 0 0 0 2.747-.665zm-.977.25a7 7 0 0 1-1.113.059l-.345 9.994a17 17 0 0 0 2.699-.13zm-1.212.056a5.7 5.7 0 0 1-2.15-.428l-3.847 9.23a15.7 15.7 0 0 0 5.85 1.197zm-2.086-.4a9 9 0 0 1-2.21-1.366l-6.431 7.657a19 19 0 0 0 4.665 2.884zm-2.165-1.328a12.4 12.4 0 0 1-2.004-2.21L69.463 51.5a22.4 22.4 0 0 0 3.62 3.978zm-1.98-2.175a18 18 0 0 1-1.66-2.905l-9.115 4.116a28 28 0 0 0 2.59 4.533zm-1.622-2.817a18.6 18.6 0 0 1-1.036-3.154l-9.744 2.248a28.6 28.6 0 0 0 1.589 4.846zm-1.02-3.083a13.7 13.7 0 0 1-.326-2.885h-10c0 1.655.19 3.321.55 4.99zm-.326-2.885q0-2.729.092-5.656l-9.996-.312a191 191 0 0 0-.096 5.968zm.09-5.606q.12-2.902.389-5.807l-9.957-.923a124 124 0 0 0-.424 6.318zm.389-5.807a107 107 0 0 1 .687-5.733l-9.894-1.457a117 117 0 0 0-.75 6.267zm.679-5.682q.436-2.76 1.065-5.241l-9.695-2.452a69 69 0 0 0-1.248 6.134zm-4.028-1.473q3.834.188 7.698.346l.407-9.992a896 896 0 0 1-7.614-.342zm7.698.346q3.985.162 7.942.097l-.164-9.999q-3.669.06-7.371-.09zm3.026-6.18q-.72 2.725-1.441 5.482l9.675 2.529q.717-2.744 1.434-5.456zm-1.451 5.52a122 122 0 0 0-1.303 5.735l9.801 1.982q.54-2.664 1.197-5.265zm-1.301 5.724a76 76 0 0 0-.97 5.92l9.924 1.227q.32-2.586.843-5.143zm-.97 5.92a51 51 0 0 0-.382 6.238h10q0-2.54.306-5.011zm-.382 6.238c0 .567.026 1.293.07 2.132l9.986-.513c-.04-.786-.056-1.31-.056-1.618zm.07 2.132q.081 1.606.412 3.18l9.786-2.06a10.5 10.5 0 0 1-.212-1.633zm.44 3.302a12.6 12.6 0 0 0 1.364 3.47l8.627-5.057c-.066-.113-.17-.333-.26-.718zm1.472 3.645c1.25 1.945 3.32 3.172 5.768 3.172v-10c.42 0 .982.099 1.553.418.561.315.907.717 1.09 1.003zm5.768 3.172c2.391 0 4.362-1.076 5.773-2.58l-7.295-6.84c.048-.052.214-.211.518-.355a2.4 2.4 0 0 1 1.004-.225zm5.825-2.637c1.114-1.226 1.94-2.678 2.57-4.184l-9.226-3.858c-.329.785-.608 1.166-.743 1.315zm2.57-4.184c.616-1.474 1.103-3.09 1.486-4.814l-9.762-2.169c-.283 1.276-.608 2.307-.95 3.124zm1.471-4.75a57 57 0 0 0 .96-5.137l-9.902-1.397a47 47 0 0 1-.79 4.237zm.953-5.085q.399-2.626.631-5.284l-9.962-.871a74 74 0 0 1-.556 4.653zm.631-5.284q.227-2.596.327-4.909l-9.99-.428a101 101 0 0 1-.299 4.466zm.324-4.842q.129-2.291.163-4.16l-9.999-.179a99 99 0 0 1-.149 3.777zm.16-4.071c.043-1.187.066-2.163.066-2.898h-10c0 .558-.018 1.395-.06 2.54zm.066-2.898q0-.75-.038-1.481l-9.986.526q.024.456.024.956zm-.038-1.481a31 31 0 0 0-.112-1.453l-9.95.995q.052.513.076.984zm-5.24 4.042q2.068.063 4.106.095l.157-9.999q-1.962-.03-3.956-.092zm4.106.095q2.04.032 4.11.032v-10q-1.993 0-3.953-.03zm4.11.032h3.125v-10h-3.125zm3.223-.001a87 87 0 0 0 3.383-.133l-.587-9.982q-1.497.087-2.992.117zm43.652 30.064-4.998-.136-.001.023v.022zm-.219 6.937-.087 5 4.865.084.217-4.861zm-18-.312-4.93-.836-.972 5.734 5.815.1zm1.625-11.032 4.961.62.001-.003zm.531-14.5-4.983.404.001.012zm-.281-2.343-4.959.635.009.072.011.072zm-.469-2.22-4.813 1.355.019.069.022.068zm-.718-1.624-4.252 2.631.074.12.081.116zm-2.813-.032-3.201-3.84-.04.033-.04.035zm-1.219 1.625-4.472-2.236-.014.03-.015.029zm-1.187 4.625-4.96-.635-.008.062-.006.063zm-.188 2.313-4.992-.285-.004.069-.002.069zm-.031 1.75 4.998.141.002-.07v-.071zm-.25 11 4.999.086zm-.25 11 .215 4.995 4.652-.2.131-4.655zm-15.938.688-4.991-.283-.313 5.516 5.52-.238zm1.188-21.938-4.993-.272v.015zm.938-21.937-.254-4.994-4.601.234-.143 4.604zm14.75-.75 4.998.124.135-5.392-5.387.274zm-.126 5-4.998-.126-.362 14.5 9.22-11.196zm1.876-2-3.364-3.7-.028.026-.028.026zm2.187-1.594 2.468 4.348.044-.025.043-.026zm2.437-1.063 1.405 4.799.037-.01.037-.012zm7.407.469-2.004 4.58zm5.843 5.938-4.525 2.125.006.014.006.013zm2.469 9.187-4.962.613.001.007zm.407 4.938-4.997.192.001.032.002.032zm-4.876 8.875q0 3.465-.091 6.864l9.996.27q.095-3.537.095-7.135zm-.092 6.909a259 259 0 0 1-.215 6.805l9.99.446q.159-3.564.223-7.07zm4.867 2.029-18-.313-.174 9.999 18 .312zm-13.157 5.522a260 260 0 0 0 1.656-11.247l-9.922-1.24q-.675 5.392-1.594 10.816zm1.657-11.25a95 95 0 0 0 .725-11.773h-10q0 5.319-.649 10.54zm.725-11.773c0-.364-.013-.875-.034-1.485l-9.994.345c.021.599.028.962.028 1.14zm-.034-1.485a47 47 0 0 0-.139-2.274l-9.965.83q.085 1.03.11 1.789zm-.138-2.263a36 36 0 0 0-.326-2.72l-9.878 1.56q.159 1.008.237 1.968zm-.306-2.575a18 18 0 0 0-.655-3.075l-9.545 2.983c.108.345.208.793.282 1.363zm-.614-2.937c-.289-1.026-.729-2.128-1.436-3.139l-8.193 5.735c-.067-.096-.087-.147-.078-.126.01.021.04.095.08.238zm-1.281-2.903c-.872-1.41-2.607-3.024-5.251-3.024v10a4.02 4.02 0 0 1-2.197-.656 3.5 3.5 0 0 1-1.055-1.056zm-5.251-3.024c-1.768 0-3.534.55-5.014 1.783l6.402 7.683c-.207.172-.461.32-.743.417a2 2 0 0 1-.645.116zm-5.094 1.852c-1.051.913-1.834 2.01-2.41 3.161l8.944 4.473c.046-.092.077-.134.083-.143.005-.007-.011.017-.055.055zm-2.439 3.22a15.4 15.4 0 0 0-1.121 3.24l9.744 2.25c.117-.506.253-.874.379-1.135zm-1.121 3.24q-.336 1.457-.525 2.927l9.919 1.271q.124-.968.35-1.949zm-.539 3.052q-.135 1.32-.206 2.538l9.984.57q.055-.969.17-2.087zm-.212 2.676c-.021.734-.033 1.37-.033 1.897h10c0-.39.009-.92.029-1.603zm-.031 1.756a993 993 0 0 0-.251 11.055l9.998.172q.093-5.441.249-10.945zm-.251 11.055a997 997 0 0 1-.249 10.946l9.996.28q.157-5.588.251-11.054zm4.534 6.09-15.938.688.431 9.99 15.937-.687zm-10.731 5.966q.627-11.043 1.189-21.962l-9.986-.516q-.562 10.894-1.186 21.913zm1.189-21.948q.597-10.965.942-22.054l-9.995-.311a939 939 0 0 1-.933 21.821zm-3.802-17.216 14.75-.75-.507-9.987-14.75.75zm9.498-5.869-.125 5 9.997.25.125-5zm8.733 8.304q.672-.815 1.435-1.53l-6.839-7.296a26 26 0 0 0-2.315 2.469zm1.379-1.479a7.2 7.2 0 0 1 1.292-.945l-4.936-8.697a17.2 17.2 0 0 0-3.083 2.243zm1.379-.996a5.6 5.6 0 0 1 1.287-.561l-2.809-9.597c-1.26.368-2.459.892-3.588 1.563zm1.361-.583a4.3 4.3 0 0 1 1.271-.183v-10c-1.436 0-2.852.204-4.228.63zm1.271-.183c1.228 0 2.073.202 2.653.456l4.008-9.162c-2.087-.913-4.346-1.294-6.661-1.294zm2.653.456c.76.332 1.352.753 1.831 1.253l7.22-6.918a15.6 15.6 0 0 0-5.043-3.497zm1.831 1.253c.548.573 1.054 1.298 1.491 2.23l9.051-4.252c-.854-1.82-1.953-3.468-3.322-4.896zm1.503 2.256a18.8 18.8 0 0 1 1.233 3.435l9.686-2.487a29 29 0 0 0-1.892-5.253zm1.233 3.435q.51 1.979.787 4.213l9.925-1.226a43.5 43.5 0 0 0-1.026-5.474zm.788 4.22a53 53 0 0 1 .371 4.51l9.993-.385a63 63 0 0 0-.441-5.365zm.374 4.574q.118 2.318.118 4.462h10q0-2.418-.131-4.975zm.118 4.462v4.157h10V36.03zm46.657 11.157-4.998-.136-.001.023v.022zm-.219 6.937-.087 5 4.865.084.217-4.861zm-18-.312-4.93-.836-.972 5.734 5.815.1zm1.625-11.032 4.961.62.001-.003zm.531-14.5-4.983.404.001.012zm-.281-2.343-4.959.635.009.072.011.072zm-.469-2.22-4.813 1.355.019.069.022.068zm-.718-1.624-4.252 2.631.074.12.081.116zm-2.813-.032-3.201-3.84-.04.033-.04.035zm-1.219 1.625-4.472-2.236-.014.03-.015.029zm-1.187 4.625-4.96-.635-.008.062-.006.063zm-.188 2.313-4.992-.285-.004.069-.002.069zm-.031 1.75 4.998.141.002-.07v-.071zm-.25 11 4.999.086zm-.25 11 .215 4.995 4.652-.2.131-4.655zm-15.938.688-4.991-.283-.313 5.516 5.52-.238zm1.188-21.938-4.993-.272v.015zm.938-21.937-.254-4.994-4.601.234-.143 4.604zm14.75-.75 4.998.124.135-5.392-5.387.274zm-.126 5-4.998-.126-.362 14.5 9.22-11.196zm1.876-2-3.364-3.7-.028.026-.028.026zm2.187-1.594 2.468 4.348.044-.025.043-.026zm2.437-1.063 1.405 4.799.037-.01.037-.012zm7.407.469-2.004 4.58zm5.843 5.938-4.525 2.125.006.014.006.013zm2.469 9.187-4.962.613.001.007zm.407 4.938-4.997.192.001.032.002.032zm-4.876 8.875q0 3.465-.091 6.864l9.996.27q.096-3.537.095-7.135zm-.092 6.909a259 259 0 0 1-.215 6.805l9.99.446q.159-3.564.223-7.07zm4.867 2.029-18-.313-.174 9.999 18 .312zm-13.157 5.522a260 260 0 0 0 1.656-11.247l-9.922-1.24q-.675 5.392-1.594 10.816zm1.657-11.25a95 95 0 0 0 .725-11.773h-10q0 5.319-.649 10.54zm.725-11.773c0-.364-.013-.875-.034-1.485l-9.994.345c.021.599.028.962.028 1.14zm-.034-1.485a47 47 0 0 0-.139-2.274l-9.965.83q.085 1.03.11 1.789zm-.138-2.263a36 36 0 0 0-.326-2.72l-9.878 1.56q.159 1.008.237 1.968zm-.306-2.575a18 18 0 0 0-.655-3.075l-9.545 2.983c.108.345.208.793.282 1.363zm-.614-2.937c-.289-1.026-.729-2.128-1.436-3.139l-8.193 5.735c-.067-.096-.087-.147-.078-.126.01.021.04.095.08.238zm-1.281-2.903c-.872-1.41-2.607-3.024-5.251-3.024v10a4.02 4.02 0 0 1-2.197-.656 3.5 3.5 0 0 1-1.055-1.056zm-5.251-3.024c-1.768 0-3.534.55-5.014 1.783l6.402 7.683c-.207.172-.461.32-.743.417a2 2 0 0 1-.645.116zm-5.094 1.852c-1.051.913-1.834 2.01-2.41 3.161l8.944 4.473c.046-.092.077-.134.083-.143.005-.007-.011.017-.055.055zm-2.439 3.22a15.4 15.4 0 0 0-1.121 3.24l9.744 2.25c.117-.506.253-.874.379-1.135zm-1.121 3.24q-.336 1.457-.525 2.927l9.919 1.271q.124-.968.35-1.949zm-.539 3.052q-.135 1.32-.206 2.538l9.984.57q.055-.969.17-2.087zm-.212 2.676c-.021.734-.033 1.37-.033 1.897h10c0-.39.009-.92.029-1.603zm-.031 1.756a993 993 0 0 0-.251 11.055l9.998.172q.093-5.441.249-10.945zm-.251 11.055a997 997 0 0 1-.249 10.946l9.996.28q.157-5.588.251-11.054zm4.534 6.09-15.938.688.431 9.99 15.937-.687zm-10.731 5.966q.627-11.043 1.189-21.962l-9.986-.516q-.562 10.894-1.186 21.913zm1.189-21.948q.597-10.965.942-22.054l-9.995-.311a939 939 0 0 1-.933 21.821zm-3.802-17.216 14.75-.75-.507-9.987-14.75.75zm9.498-5.869-.125 5 9.997.25.125-5zm8.733 8.304q.672-.815 1.435-1.53l-6.839-7.296a26 26 0 0 0-2.315 2.469zm1.379-1.479a7.2 7.2 0 0 1 1.292-.945l-4.936-8.697a17.2 17.2 0 0 0-3.083 2.243zm1.379-.996a5.6 5.6 0 0 1 1.287-.561l-2.809-9.597c-1.26.368-2.459.892-3.588 1.563zm1.361-.583a4.3 4.3 0 0 1 1.271-.183v-10c-1.436 0-2.852.204-4.228.63zm1.271-.183c1.228 0 2.073.202 2.653.456l4.008-9.162c-2.087-.913-4.346-1.294-6.661-1.294zm2.653.456c.76.332 1.352.753 1.831 1.253l7.22-6.918a15.6 15.6 0 0 0-5.043-3.497zm1.831 1.253c.548.573 1.054 1.298 1.491 2.23l9.051-4.252c-.854-1.82-1.953-3.468-3.322-4.896zm1.503 2.256a18.8 18.8 0 0 1 1.233 3.435l9.686-2.487a29 29 0 0 0-1.892-5.253zm1.233 3.435q.51 1.979.787 4.213l9.925-1.226a43.5 43.5 0 0 0-1.026-5.474zm.788 4.22a53 53 0 0 1 .371 4.51l9.993-.385a63 63 0 0 0-.441-5.365zm.374 4.574q.118 2.318.118 4.462h10q0-2.418-.131-4.975zm.118 4.462v4.157h10V36.03zM230 13.688l4.265 2.61 4.294-7.017-8.206-.581zm-14.688 24-4.264-2.61-.77 1.258.036 1.475zm.438 17.687v5h5.125l-.127-5.124zm-16.062 0-4.999-.107-.109 5.107h5.108zm.374-17.562 4.999.106.026-1.222-.54-1.096zm-11.437-23.188-.623-4.961-6.968.874 3.107 6.299zm15.937-2 4.689-1.737-1.377-3.718-3.934.494zm5 13.5-4.688 1.737 4.493 12.131 4.833-12zm5.438-13.5.353-4.987-3.631-.258-1.36 3.377zm10.735-1.547-14.687 24 8.529 5.22 14.688-24zM210.314 37.81l.438 17.688 9.996-.248-.437-17.687zm5.436 12.564h-16.062v10h16.062zm-11.064 5.107.375-17.563-9.997-.213-.375 17.562zm-.139-19.881-11.438-23.188-8.968 4.424 11.437 23.187zm-15.299-16.015 15.937-2-1.245-9.922-15.938 2zm10.626-5.224 5 13.5 9.377-3.474-5-13.5zM214.2 27.993l5.438-13.5-9.276-3.736-5.437 13.5zm.447-10.38 15 1.062.706-9.975-15-1.062z" mask="url(#a)"/><path fill="#FFD900" d="m42.617 66.54-1.094 8.241a7 7 0 0 0-1.132-.215q-.567-.058-1.133-.058-1.446 0-2.754.39a6.8 6.8 0 0 0-2.324 1.153 5.9 5.9 0 0 0-1.602 1.953q-.585 1.172-.586 2.754 0 1.016.313 1.758.331.742.918 1.23.585.489 1.386.723t1.758.234q.723 0 1.504-.156.78-.156 1.543-.41.762-.255 1.484-.586.723-.333 1.329-.684l-.782 9.18q-.761.39-1.66.703-.879.293-1.816.527-.937.216-1.875.332-.937.118-1.797.118-2.481 0-4.629-.918a11.6 11.6 0 0 1-3.73-2.52 11.9 11.9 0 0 1-2.5-3.77q-.9-2.187-.899-4.707 0-3.339.957-6.289.957-2.968 2.813-5.195 1.855-2.226 4.59-3.516 2.753-1.289 6.328-1.289 1.347 0 2.754.215 1.425.215 2.636.801m25.86 25.78-9.688 1.25-1.172-4.414h-4.453l-.977 4.414-9.96-.976L50 66.578l10.86-.547zm-11.563-9.14-1.484-6.797-1.446 6.797zm29.102.468-.82 8.672-16.446 1.29.625-27.891h10.156l-1.445 17.93zm19.55-16.328-.703 8.243a7 7 0 0 0-1.113-.215q-.547-.06-1.113-.059-1.387 0-2.656.352a6.8 6.8 0 0 0-2.227 1.074 5.4 5.4 0 0 0-1.543 1.836q-.567 1.094-.567 2.597 0 1.095.313 1.915.332.8.918 1.347.606.528 1.445.8a6.2 6.2 0 0 0 1.895.274q.722 0 1.484-.136.762-.157 1.524-.41.761-.255 1.465-.586a14 14 0 0 0 1.308-.704l-.312 9.18q-.762.39-1.641.703-.879.294-1.816.508-.918.234-1.856.352-.918.117-1.758.117-2.773 0-5.058-1.035a12.1 12.1 0 0 1-3.907-2.813 13.1 13.1 0 0 1-2.52-4.16q-.897-2.363-.897-5.04 0-3.202.898-5.976.918-2.773 2.676-4.804 1.777-2.052 4.375-3.203 2.616-1.172 5.996-1.172 1.348 0 2.734.214a10 10 0 0 1 2.656.801m25.157-.82a384 384 0 0 0-1.504 13.691q-.625 6.798-1.192 13.692l-8.007.586.351-3.008q-.39.45-.918.781a5.4 5.4 0 0 1-1.094.547q-.585.195-1.211.293a7.5 7.5 0 0 1-1.191.059 6.7 6.7 0 0 1-2.5-.508 8.7 8.7 0 0 1-2.148-1.328 11 11 0 0 1-1.758-1.934 14 14 0 0 1-1.328-2.324 15 15 0 0 1-.821-2.5 11.7 11.7 0 0 1-.273-2.461q0-1.758.059-3.633.078-1.894.253-3.789.176-1.895.45-3.75.293-1.855.722-3.555 2.383.118 4.785.215 2.403.098 4.786.059-.45 1.7-.899 3.418a73 73 0 0 0-.781 3.437 45 45 0 0 0-.566 3.457 29 29 0 0 0-.215 3.516q0 .41.039 1.172t.195 1.504q.175.742.508 1.308.352.547.976.547.743 0 1.329-.625.585-.644 1.035-1.719.449-1.074.761-2.48.333-1.406.547-2.93.235-1.543.371-3.105.138-1.562.196-2.93.078-1.386.097-2.48.039-1.095.039-1.7a15 15 0 0 0-.078-1.523 167 167 0 0 0 5.039.078h1.953a51 51 0 0 0 1.993-.078m18.3 17.148-.82 8.672-16.445 1.29.625-27.891h10.156l-1.445 17.93zm25.547 8.672-9.687 1.25-1.172-4.414h-4.453l-.977 4.414-9.961-.976 7.774-26.016 10.859-.547zm-11.562-9.14-1.485-6.797-1.445 6.797zm30.234-16.72-.195 8.282-5.82.235-.704 18.125-8.242.43-.742-18.126-5.82.313.234-9.219zm24.863 12.58q0 1.776-.41 3.437a13.2 13.2 0 0 1-1.191 3.085 12.6 12.6 0 0 1-1.875 2.657 11.8 11.8 0 0 1-2.481 2.05 12.2 12.2 0 0 1-2.988 1.348 12.3 12.3 0 0 1-3.437.469q-1.758 0-3.36-.45a13 13 0 0 1-2.968-1.25 12.7 12.7 0 0 1-2.52-1.952 13 13 0 0 1-1.914-2.54 14 14 0 0 1-1.231-3.007 12.9 12.9 0 0 1-.429-3.34q0-1.7.41-3.32a13.7 13.7 0 0 1 1.172-3.086 13.6 13.6 0 0 1 1.875-2.657 12.4 12.4 0 0 1 2.441-2.09 12 12 0 0 1 2.949-1.367 11.3 11.3 0 0 1 3.34-.488q2.832 0 5.157.879 2.343.879 3.984 2.52 1.66 1.62 2.559 3.945.917 2.304.917 5.156m-8.671.507q0-.84-.254-1.621a4.2 4.2 0 0 0-.703-1.407 3.5 3.5 0 0 0-1.172-.996q-.684-.39-1.582-.39-.918 0-1.641.332a3.8 3.8 0 0 0-1.25.918 3.9 3.9 0 0 0-.781 1.348 4.8 4.8 0 0 0-.274 1.62q0 .82.235 1.641.234.82.703 1.485.468.663 1.152 1.074.703.41 1.621.41t1.641-.352a3.9 3.9 0 0 0 1.25-.976q.507-.625.781-1.426a5.1 5.1 0 0 0 .274-1.66m32.929-4.375q0 1.524-.273 2.773a8.1 8.1 0 0 1-.82 2.266 8.2 8.2 0 0 1-1.465 1.914q-.899.879-2.168 1.68l4.648 8.28-8.789 1.72-3.008-8.32-2.422.078-.351 8.124h-8.399q.098-4.452.176-8.867.098-4.413.215-8.867l.078-4.453q.039-2.207.156-4.453a26 26 0 0 1 2.696-.84q1.328-.331 2.656-.508 1.347-.195 2.715-.254a50 50 0 0 1 2.832-.078q2.226 0 4.297.625 2.09.606 3.691 1.836a9.14 9.14 0 0 1 2.559 3.066q.976 1.836.976 4.278m-8.75.625q0-.82-.234-1.504a3.1 3.1 0 0 0-.664-1.172 2.8 2.8 0 0 0-1.094-.781q-.645-.293-1.523-.293-.392 0-.762.059a4.5 4.5 0 0 0-.723.136l-.312 7.266h.469q.839 0 1.699-.215a5 5 0 0 0 1.562-.664q.704-.45 1.133-1.152.45-.705.449-1.68"/></svg>